
<svg aria-hidden="true" style="position:absolute;width:0;height:0" xmlns="http://www.w3.org/2000/svg" overflow="hidden"><defs><symbol id="icon-logo" viewBox="0 0 51 32"><path fill="var(--color1, #ff6b09)" d="M32 16c0 8.837-7.163 16-16 16S0 24.837 0 16 7.163 0 16 0s16 7.163 16 16z"/><path fill="var(--color2, #fff)" d="M11.996 11.2h2.121v7.436h4.595v1.728h-6.716V11.2zM24.442 20.521c-.951 0-1.811-.205-2.579-.615a4.646 4.646 0 01-1.794-1.689c-.428-.724-.641-1.536-.641-2.435s.214-1.706.641-2.422a4.606 4.606 0 011.794-1.702c.768-.41 1.628-.615 2.579-.615s1.807.205 2.566.615c.759.41 1.357.977 1.793 1.702.436.716.655 1.523.655 2.422s-.218 1.711-.655 2.435c-.436.716-1.034 1.279-1.793 1.689s-1.615.615-2.566.615zm0-1.807a2.94 2.94 0 001.466-.367 2.677 2.677 0 001.021-1.047c.253-.445.38-.951.38-1.519s-.126-1.073-.38-1.518a2.585 2.585 0 00-1.021-1.034c-.436-.253-.925-.38-1.466-.38s-1.03.127-1.466.38a2.676 2.676 0 00-1.034 1.034c-.244.445-.366.951-.366 1.518s.122 1.074.366 1.519c.253.445.598.794 1.034 1.047.436.244.925.367 1.466.367zM37.504 15.638h1.937v3.718c-.497.375-1.073.663-1.728.864s-1.313.301-1.977.301c-.951 0-1.807-.201-2.566-.602a4.646 4.646 0 01-1.794-1.689c-.428-.724-.641-1.54-.641-2.448s.214-1.719.641-2.435a4.501 4.501 0 011.807-1.689c.768-.41 1.632-.615 2.592-.615.803 0 1.532.135 2.186.406s1.204.663 1.65 1.178l-1.362 1.257c-.654-.689-1.444-1.034-2.369-1.034-.585 0-1.104.122-1.558.367s-.807.589-1.06 1.034-.38.956-.38 1.532c0 .567.126 1.074.38 1.519s.602.794 1.047 1.047c.454.244.969.367 1.545.367.611 0 1.161-.131 1.649-.393v-2.684zM46.111 20.521c-.951 0-1.811-.205-2.579-.615a4.636 4.636 0 01-1.793-1.689c-.428-.724-.641-1.536-.641-2.435s.214-1.706.641-2.422a4.61 4.61 0 011.793-1.702c.768-.41 1.628-.615 2.579-.615s1.806.205 2.566.615 1.357.977 1.793 1.702c.436.716.655 1.523.655 2.422s-.218 1.711-.655 2.435c-.436.716-1.034 1.279-1.793 1.689s-1.615.615-2.566.615zm0-1.807a2.94 2.94 0 001.466-.367 2.677 2.677 0 001.021-1.047c.253-.445.38-.951.38-1.519s-.127-1.073-.38-1.518a2.585 2.585 0 00-1.021-1.034c-.436-.253-.925-.38-1.466-.38s-1.03.127-1.466.38a2.676 2.676 0 00-1.034 1.034c-.244.445-.367.951-.367 1.518s.122 1.074.367 1.519c.253.445.598.794 1.034 1.047.436.244.925.367 1.466.367z"/></symbol><symbol id="icon-google" viewBox="0 0 32 32"><path fill="var(--color3, #2196f3)" d="M31.743 13.038c.142 0 .257.115.257.258V16c0 1.012-.094 2.002-.274 2.962C30.331 26.419 23.762 32.054 15.888 32A15.961 15.961 0 01.001 15.964C.02 7.144 7.177 0 16.001 0c4.323 0 8.246 1.715 11.126 4.501a.258.258 0 01.004.369l-3.826 3.826a.258.258 0 01-.359.005A10.04 10.04 0 0016 5.924 10.046 10.046 0 005.924 15.931C5.886 21.528 10.412 26.077 16 26.077c4.534 0 8.369-2.995 9.634-7.115h-9.376a.258.258 0 01-.258-.258v-5.408c0-.142.115-.258.258-.258h15.485z"/><path fill="var(--color4, #1e88e5)" d="M31.742 13.038H29.81c.142 0 .258.115.258.258V16c0 1.012-.094 2.002-.274 2.962-1.331 7.114-7.371 12.57-14.761 13.009.283.017.567.026.854.028 7.874.054 14.444-5.581 15.838-13.038.18-.96.274-1.95.274-2.962v-2.704a.258.258 0 00-.258-.258z"/><path fill="var(--color5, #f44336)" d="M6.848 11.78L1.989 8.269C4.715 3.338 9.968 0 16.001 0c4.323 0 8.246 1.715 11.126 4.501a.258.258 0 01.004.369l-3.826 3.826a.257.257 0 01-.358.005A10.04 10.04 0 0016 5.924a10.076 10.076 0 00-9.152 5.857z"/><path fill="var(--color6, #e53935)" d="M5.445 10.767l1.403 1.014a10.083 10.083 0 018.104-5.802l.081-.009c-.317-.03-.639-.046-.964-.046a10.048 10.048 0 00-8.624 4.843zM25.194 4.501a.258.258 0 01.004.369l-3.105 3.105c.297.226.582.468.852.726.101.096.26.094.359-.005L27.13 4.87a.259.259 0 00-.004-.369A15.952 15.952 0 0015.034.03a15.95 15.95 0 0110.16 4.471z"/><path fill="var(--color7, #4caf50)" d="M27.737 26.874A15.955 15.955 0 0116 32c-6.264 0-11.687-3.6-14.314-8.844l4.961-3.4a10.08 10.08 0 0016.231 3.607l4.859 3.51z"/><path fill="var(--color8, #43a047)" d="M6.647 19.756l-1.463 1.003a10.075 10.075 0 009.848 5.272 10.084 10.084 0 01-8.385-6.274zM16 32c4.638 0 8.815-1.974 11.737-5.126l-1.19-.86a15.972 15.972 0 01-11.51 5.957c.319.019.64.029.963.029z"/><path fill="var(--color9, #ffc107)" d="M5.924 16c0 1.328.257 2.595.724 3.756l-4.961 3.4A15.928 15.928 0 01.001 16c0-2.804.721-5.439 1.988-7.731l4.859 3.511A10.034 10.034 0 005.924 16z"/><path fill="var(--color10, #ffb300)" d="M5.184 20.759l1.463-1.003A10.044 10.044 0 015.923 16c0-1.507.331-2.937.924-4.22l-1.403-1.014a10.054 10.054 0 00-1.452 5.164 10.036 10.036 0 001.192 4.829z"/></symbol><symbol id="icon-copyright" viewBox="0 0 32 32"><path d="M13.44 14.48c.067-.44.213-.827.4-1.16s.453-.613.787-.827c.32-.2.72-.293 1.213-.307.307.013.587.067.84.173.267.12.507.28.693.48s.333.44.453.707c.12.267.173.56.187.853H20.4c-.027-.627-.147-1.2-.373-1.72a4 4 0 00-.933-1.347c-.4-.373-.88-.667-1.44-.88s-1.173-.307-1.853-.307c-.867 0-1.627.147-2.267.453s-1.173.707-1.6 1.227c-.427.52-.747 1.12-.947 1.813s-.32 1.413-.32 2.187v.36c0 .773.107 1.493.307 2.187s.52 1.293.947 1.8c.427.507.96.92 1.6 1.213s1.4.453 2.267.453c.627 0 1.213-.107 1.76-.307s1.027-.48 1.44-.84c.413-.36.747-.773.987-1.253s.387-.987.4-1.533h-2.387c-.013.28-.08.533-.2.773s-.28.44-.48.613c-.2.173-.427.307-.693.4-.253.093-.52.12-.8.133-.48-.013-.88-.107-1.187-.307-.333-.213-.6-.493-.787-.827s-.333-.733-.4-1.173a8.938 8.938 0 01-.107-1.333v-.36c0-.467.04-.907.107-1.347zM16 2.667C8.64 2.667 2.667 8.64 2.667 16S8.64 29.333 16 29.333 29.333 23.36 29.333 16 23.36 2.667 16 2.667zm0 24C10.12 26.667 5.333 21.88 5.333 16S10.12 5.333 16 5.333 26.667 10.12 26.667 16 21.88 26.667 16 26.667z"/></symbol><symbol id="icon-euro" viewBox="0 0 32 32"><path d="M19.551 23.964c2.489 0 4.587-.984 6.293-2.951l3.662 3.413a11.53 11.53 0 01-4.409 3.307c-1.73.759-3.674 1.138-5.831 1.138-2.062 0-3.982-.367-5.76-1.102-1.754-.735-3.247-1.778-4.48-3.129s-2.121-2.916-2.667-4.693H2.341V16.96h3.484c-.024-.213-.036-.533-.036-.96s.012-.747.036-.96H2.341v-2.987h4.018c.545-1.778 1.434-3.342 2.667-4.693s2.726-2.394 4.48-3.129c1.778-.735 3.698-1.102 5.76-1.102 2.157 0 4.101.379 5.831 1.138 1.754.758 3.224 1.849 4.409 3.271l-3.662 3.413c-1.73-1.944-3.828-2.916-6.293-2.916-1.564 0-2.963.356-4.196 1.067s-2.181 1.695-2.844 2.951h8.996v2.987h-9.884c-.024.213-.036.533-.036.96s.012.747.036.96h9.884v2.987h-8.996c.664 1.256 1.612 2.24 2.844 2.951s2.631 1.067 4.196 1.067z"/></symbol><symbol id="icon-favorite-heart" viewBox="0 0 32 32"><path d="M16 30.72l-2.24-2.24C5.44 21.12 0 16.16 0 10.08c0-4.96 3.84-8.8 8.8-8.8 2.72 0 5.44 1.28 7.2 3.36 1.76-2.08 4.48-3.36 7.2-3.36 4.96 0 8.8 3.84 8.8 8.8 0 6.08-5.44 11.04-13.76 18.4L16 30.72z"/></symbol><symbol id="icon-file" viewBox="0 0 32 32"><path d="M20.8 0H1.6v32h28.8V9.6L20.8 0zm0 4.528L25.872 9.6H20.8V4.528zM27.2 28.8H4.8V3.2h12.8v9.6h9.6v16z"/><path d="M22.016 15.471l-2.256-2.272-3.728 3.728-3.904-3.904-2.256 2.272 3.888 3.888-3.696 3.712 2.256 2.256 3.712-3.696 3.728 3.728 2.256-2.272-3.728-3.728 3.728-3.712z"/></symbol><symbol id="icon-fullscreen" viewBox="0 0 32 32"><path d="M9.333 18.667H6.666v6.667h6.667v-2.667h-4v-4zm-2.666-5.334h2.667v-4h4V6.666H6.667v6.667zm16 9.334h-4v2.667h6.667v-6.667h-2.667v4zm-4-16v2.667h4v4h2.667V6.667h-6.667z"/></symbol><symbol id="icon-heart-add-favorite" viewBox="0 0 32 32"><path d="M16 30.22c-.456 0-.895-.165-1.237-.465a374.562 374.562 0 00-3.639-3.13l-.006-.005c-3.224-2.747-6.008-5.12-7.945-7.457-2.165-2.613-3.174-5.09-3.174-7.796 0-2.629.902-5.055 2.539-6.831C4.194 2.739 6.467 1.75 8.939 1.75c1.847 0 3.539.584 5.028 1.736A10.288 10.288 0 0116 5.609c.6-.83 1.281-1.541 2.033-2.123 1.489-1.152 3.181-1.736 5.028-1.736 2.471 0 4.744.99 6.401 2.786C31.099 6.312 32 8.737 32 11.367c0 2.706-1.008 5.184-3.174 7.796-1.937 2.337-4.721 4.71-7.944 7.457-1.102.939-2.35 2.003-3.646 3.136a1.88 1.88 0 01-1.237.464zM8.939 3.625c-1.942 0-3.725.775-5.023 2.182-1.317 1.428-2.042 3.403-2.042 5.56 0 2.276.846 4.312 2.743 6.6 1.833 2.212 4.56 4.536 7.717 7.227l.006.005c1.104.941 2.355 2.007 3.657 3.146a430.966 430.966 0 013.669-3.151c3.157-2.691 5.884-5.014 7.717-7.226 1.896-2.289 2.742-4.324 2.742-6.6 0-2.157-.725-4.132-2.042-5.56-1.297-1.407-3.081-2.182-5.023-2.182-1.422 0-2.728.452-3.881 1.344-1.028.795-1.743 1.8-2.163 2.503-.216.362-.596.577-1.016.577s-.801-.216-1.016-.577c-.419-.703-1.135-1.708-2.163-2.503-1.153-.892-2.459-1.344-3.881-1.344z"/></symbol><symbol id="icon-heart-favorite" viewBox="0 0 32 32"><path stroke-width=".6" d="M16 28c-.399 0-.783-.139-1.082-.392-1.131-.953-2.222-1.848-3.184-2.638l-.005-.004C8.908 22.65 6.472 20.65 4.777 18.68 2.882 16.477 2 14.389 2 12.108c0-2.217.789-4.261 2.221-5.758C5.67 4.835 7.659 4.001 9.822 4.001c1.616 0 3.096.492 4.399 1.463A8.822 8.822 0 0116 7.253a8.797 8.797 0 011.779-1.789 7.214 7.214 0 014.399-1.463c2.162 0 4.151.834 5.601 2.349C29.211 7.847 30 9.892 30 12.108c0 2.281-.882 4.37-2.777 6.572-1.695 1.97-4.131 3.97-6.951 6.286-.964.791-2.056 1.688-3.19 2.643A1.68 1.68 0 0116 28zM9.822 5.58c-1.699 0-3.26.653-4.395 1.84-1.152 1.204-1.787 2.869-1.787 4.687 0 1.919.74 3.635 2.4 5.564 1.604 1.865 3.99 3.824 6.753 6.092l.005.004c.966.793 2.061 1.692 3.2 2.652a361.039 361.039 0 013.211-2.656c2.762-2.268 5.148-4.227 6.752-6.092 1.659-1.929 2.4-3.645 2.4-5.564 0-1.819-.635-3.483-1.787-4.687-1.135-1.186-2.696-1.84-4.395-1.84a5.569 5.569 0 00-3.396 1.133c-.899.67-1.525 1.517-1.893 2.11-.189.305-.521.487-.889.487s-.7-.182-.889-.487c-.367-.593-.993-1.44-1.893-2.11A5.571 5.571 0 009.823 5.58z"/></symbol><symbol id="icon-logout" viewBox="0 0 32 32"><path d="M3.236 21.654v7.111h25.529V3.236H3.236v7.111H.32V3.556A3.235 3.235 0 013.556.32h24.889a3.235 3.235 0 013.236 3.236v24.889a3.235 3.235 0 01-3.235 3.236H3.557a3.235 3.235 0 01-3.236-3.236v-6.791h2.916zm14.728-7.112l-4.915-4.916 2.063-2.063 8.436 8.436-8.436 8.436-2.063-2.063 4.915-4.916H.32v-2.915h17.644z"/></symbol><symbol id="icon-menu" viewBox="0 0 32 32"><path d="M1.6 25.6h28.8v-3.2H1.6v3.2zm0-8h28.8v-3.2H1.6v3.2zm0-11.2v3.2h28.8V6.4H1.6z"/></symbol><symbol id="icon-plus" viewBox="0 0 32 32"><path stroke-width="4.571" d="M16 0v32M0 16h32"/></symbol><symbol id="icon-replay" viewBox="0 0 32 32"><path d="M6.667 16H1.334l6.667 6.667L14.668 16H9.335c0-4.413 3.587-8 8-8s8 3.587 8 8-3.587 8-8 8v2.667c5.893 0 10.667-4.773 10.667-10.667S23.229 5.333 17.335 5.333C11.442 5.333 6.668 10.106 6.668 16z"/></symbol><symbol id="icon-search" viewBox="0 0 32 32"><path d="M20.667 18.667h-1.053l-.373-.36a8.626 8.626 0 002.093-5.64C21.334 7.88 17.454 4 12.667 4S4 7.88 4 12.667a8.667 8.667 0 008.667 8.667 8.63 8.63 0 005.64-2.093l.36.373v1.053l6.667 6.653 1.987-1.987-6.653-6.667zm-8 0c-3.32 0-6-2.68-6-6s2.68-6 6-6 6 2.68 6 6-2.68 6-6 6z"/></symbol><symbol id="icon-share" viewBox="0 0 32 32"><path d="M25.436 21.333c-1.623 0-3.079.73-4.058 1.878l-9.632-5.955a5.313 5.313 0 000-2.512l9.632-5.955a5.322 5.322 0 004.058 1.878c2.941 0 5.333-2.393 5.333-5.333S28.376.001 25.436.001s-5.333 2.393-5.333 5.333c0 .433.053.853.151 1.256l-9.632 5.955a5.322 5.322 0 00-4.058-1.878c-2.941 0-5.333 2.393-5.333 5.333s2.393 5.333 5.333 5.333c1.624 0 3.079-.73 4.058-1.878l9.631 5.955a5.339 5.339 0 005.182 6.589 5.34 5.34 0 005.333-5.333 5.34 5.34 0 00-5.333-5.333zm0-18.871c1.584 0 2.872 1.288 2.872 2.872s-1.288 2.872-2.872 2.872c-1.583 0-2.872-1.288-2.872-2.872s1.288-2.872 2.872-2.872zM6.564 18.872c-1.583 0-2.872-1.288-2.872-2.872s1.288-2.872 2.872-2.872c1.583 0 2.872 1.288 2.872 2.872s-1.288 2.872-2.872 2.872zm18.872 10.666c-1.583 0-2.872-1.288-2.872-2.872s1.288-2.872 2.872-2.872c1.584 0 2.872 1.288 2.872 2.872s-1.288 2.872-2.872 2.872z"/></symbol><symbol id="icon-symbol-defs" viewBox="0 0 32 32"><path d="M25.436 21.333c-1.623 0-3.079.73-4.058 1.878l-9.632-5.955a5.313 5.313 0 000-2.512l9.632-5.955a5.322 5.322 0 004.058 1.878c2.941 0 5.333-2.393 5.333-5.333S28.376.001 25.436.001s-5.333 2.393-5.333 5.333c0 .433.053.853.151 1.256l-9.632 5.955a5.322 5.322 0 00-4.058-1.878c-2.941 0-5.333 2.393-5.333 5.333s2.393 5.333 5.333 5.333c1.624 0 3.079-.73 4.058-1.878l9.631 5.955a5.339 5.339 0 005.182 6.589 5.34 5.34 0 005.333-5.333 5.34 5.34 0 00-5.333-5.333zm0-18.871c1.584 0 2.872 1.288 2.872 2.872s-1.288 2.872-2.872 2.872c-1.583 0-2.872-1.288-2.872-2.872s1.288-2.872 2.872-2.872zM6.564 18.872c-1.583 0-2.872-1.288-2.872-2.872s1.288-2.872 2.872-2.872c1.583 0 2.872 1.288 2.872 2.872s-1.288 2.872-2.872 2.872zm18.872 10.666c-1.583 0-2.872-1.288-2.872-2.872s1.288-2.872 2.872-2.872c1.584 0 2.872 1.288 2.872 2.872s-1.288 2.872-2.872 2.872z"/></symbol><symbol id="icon-tune" viewBox="0 0 32 32"><path d="M4 22.667v2.667h8v-2.667H4zm0-16v2.667h13.333V6.667H4zM17.333 28v-2.667H28v-2.667H17.333v-2.667h-2.667v8h2.667zm-8-16v2.667H4v2.667h5.333v2.667H12v-8H9.333zM28 17.333v-2.667H14.667v2.667H28zM20 12h2.667V9.333H28V6.666h-5.333V3.999H20v8z"/></symbol><symbol id="icon-user-profile" viewBox="0 0 32 32"><path d="M29.474 32h-3.242c0-5.47-4.588-9.919-10.232-9.919S5.77 26.531 5.77 32H2.528c0-7.26 6.046-13.161 13.474-13.161 7.427 0 13.472 5.901 13.472 13.161zM16.001 17.785c-4.901 0-8.891-3.991-8.891-8.892C7.108 3.99 11.098 0 16.001 0c4.904 0 8.894 3.988 8.894 8.893s-3.99 8.892-8.894 8.892zm0-14.543c-3.116 0-5.65 2.534-5.65 5.65s2.534 5.65 5.65 5.65c3.118 0 5.652-2.534 5.652-5.65s-2.537-5.65-5.652-5.65z"/></symbol><symbol id="icon-vector" viewBox="0 0 32 32"><path stroke-width="1.6" d="M16 0v32"/></symbol><symbol id="icon-add-foto" viewBox="0 0 32 32"><path d="M30.335 17.978H18.687v11.456h-5.376V17.978H1.663v-5.056h11.648V1.402h5.376v11.52h11.648v5.056z"/></symbol><symbol id="icon-arrow-drop" viewBox="0 0 32 32"><path d="M9.333 13.333L16 20l6.667-6.667H9.334z"/></symbol><symbol id="icon-chevron_left" viewBox="0 0 32 32"><path d="M21.333 9.2l-2.03-2.089L10.666 16l8.637 8.889 2.03-2.089L14.74 16l6.593-6.8z"/></symbol><symbol id="icon-chevron_right" viewBox="0 0 32 32"><path d="M10.667 9.2l2.03-2.089L21.334 16l-8.637 8.889-2.03-2.089L17.26 16l-6.593-6.8z"/></symbol><symbol id="icon-close" viewBox="0 0 32 32"><path d="M25.333 8.547l-1.88-1.88L16 14.12 8.547 6.667l-1.88 1.88L14.12 16l-7.453 7.453 1.88 1.88L16 17.88l7.453 7.453 1.88-1.88L17.88 16l7.453-7.453z"/></symbol>
<symbol id="icon-arrow-up" viewBox="0 0 32 32" x="0" y="0">
<path d="M16 26.667c-5.88 0-10.667-4.787-10.667-10.667s4.787-10.667 10.667-10.667 10.667 4.787 10.667 10.667-4.787 10.667-10.667 10.667zM16 29.333c7.36 0 13.333-5.973 13.333-13.333s-5.973-13.333-13.333-13.333c-7.36 0-13.333 5.973-13.333 13.333s5.973 13.333 13.333 13.333v0zM14.667 16v5.333h2.667v-5.333h4l-5.333-5.333-5.333 5.333h4z"></path>></symbol><symbol id="icon-eye" viewBox="0 0 32 32">
<path d="M16 6.463c-6.114 0-11.658 3.345-15.75 8.778-0.334 0.445-0.334 1.067 0 1.512 4.091 5.44 9.636 8.785 15.75 8.785s11.658-3.345 15.75-8.778c0.334-0.445 0.334-1.067 0-1.512-4.091-5.44-9.636-8.785-15.75-8.785zM16.439 22.716c-4.059 0.255-7.41-3.090-7.155-7.155 0.209-3.352 2.926-6.068 6.278-6.278 4.058-0.255 7.41 3.090 7.155 7.155-0.216 3.345-2.933 6.062-6.278 6.278zM16.236 19.613c-2.186 0.137-3.993-1.663-3.849-3.849 0.111-1.807 1.578-3.266 3.384-3.384 2.186-0.137 3.993 1.663 3.849 3.849-0.118 1.813-1.584 3.273-3.384 3.384z"></path>
</symbol>
</defs></svg>
